<?xml version="1.0" encoding="UTF-8" standalone="no"?>
<!-- Created with Inkscape (http://www.inkscape.org/) -->

<svg
   xmlns:dc="http://purl.org/dc/elements/1.1/"
   xmlns:cc="http://creativecommons.org/ns#"
   xmlns:rdf="http://www.w3.org/1999/02/22-rdf-syntax-ns#"
   xmlns:svg="http://www.w3.org/2000/svg"
   xmlns="http://www.w3.org/2000/svg"
   xmlns:sodipodi="http://sodipodi.sourceforge.net/DTD/sodipodi-0.dtd"
   xmlns:inkscape="http://www.inkscape.org/namespaces/inkscape"
   width="168"
   height="120"
   viewBox="0 0 44.449999 31.75"
   version="1.1"
   id="svg8"
   inkscape:version="0.92.1 r"
   sodipodi:docname="ic_empty_search.svg">
  <defs
     id="defs2" />
  <sodipodi:namedview
     id="base"
     pagecolor="#ffffff"
     bordercolor="#666666"
     borderopacity="1.0"
     inkscape:pageopacity="0.0"
     inkscape:pageshadow="2"
     inkscape:zoom="2.8"
     inkscape:cx="247.20088"
     inkscape:cy="87.092098"
     inkscape:document-units="mm"
     inkscape:current-layer="layer1"
     showgrid="false"
     units="px"
     inkscape:window-width="3840"
     inkscape:window-height="2085"
     inkscape:window-x="1920"
     inkscape:window-y="44"
     inkscape:window-maximized="1" />
  <metadata
     id="metadata5">
    <rdf:RDF>
      <cc:Work
         rdf:about="">
        <dc:format>image/svg+xml</dc:format>
        <dc:type
           rdf:resource="http://purl.org/dc/dcmitype/StillImage" />
        <dc:title />
      </cc:Work>
    </rdf:RDF>
  </metadata>
  <g
     inkscape:label="Ebene 1"
     inkscape:groupmode="layer"
     id="layer1"
     transform="translate(0,-265.24998)">
    <path
       style="fill:#ffffff;fill-opacity:0.25098041;stroke-width:0.00490061"
       d="M 9.5086482,296.99998 C 4.2654998,296.99998 0,292.73225 0,287.48687 c 0,-4.00334 2.4612788,-7.49838 6.1188846,-8.88389 -0.089622,-0.57799 -0.1346891,-1.15289 -0.1346891,-1.71909 0,-6.41517 5.2160055,-11.63391 11.6278275,-11.63391 4.574311,0 8.64213,2.64088 10.532899,6.70468 1.169186,-0.47192 2.418775,-0.71735 3.680143,-0.71735 5.449533,0 9.8825,4.43579 9.8825,9.88767 0,0.73016 -0.08245,1.4593 -0.245822,2.17716 1.86414,1.43573 2.988257,3.6749 2.988257,6.05548 0,4.08532 -3.286316,7.48044 -7.35311,7.63211 -0.05275,0.007 -0.106521,0.0102 -0.160805,0.0102 H 9.5086482 Z m 1.1508598,-2.57432 H 36.79408 c 0.03273,-0.003 0.06598,-0.005 0.09974,-0.006 2.741181,-0.0532 4.971875,-2.32769 4.971875,-5.07004 0,-1.80503 -0.97545,-3.48924 -2.545273,-4.39533 -0.526344,-0.30409 -0.766241,-0.93682 -0.574426,-1.51375 0.252685,-0.75713 0.380566,-1.53627 0.380566,-2.31592 0,-4.03597 -3.280315,-7.3189 -7.313057,-7.3189 -1.29719,0 -2.579034,0.3522 -3.707424,1.01923 -0.334528,0.19811 -0.741689,0.23292 -1.104349,0.0942 -0.363685,-0.13771 -0.644504,-0.43411 -0.763684,-0.80474 -1.207163,-3.7626 -4.67162,-6.29046 -8.620476,-6.29046 -4.993359,0 -9.0562809,4.06566 -9.0562809,9.06353 0,0.74023 0.1012788,1.50606 0.300768,2.2765 0.086445,0.33275 0.035294,0.68648 -0.1421998,0.98135 -0.1774936,0.29487 -0.4659855,0.50578 -0.8005127,0.58512 -3.1411818,0.74536 -5.3350472,3.52098 -5.3350472,6.75016 0,3.82916 3.1130486,6.9447 6.9396525,6.9447 0.067008,0 0.134016,-0.002 0.2005132,-0.004 l 0.9350399,0.004 z"
       id="path4485"
       inkscape:connector-curvature="0" />
    <path
       style="fill:#ffffff;fill-opacity:0.25098041;stroke-width:0.00490061"
       id="path6"
       d="m 18.262403,281.2966 c 0,0.80623 -0.655597,1.45878 -1.464438,1.45878 -0.809348,0 -1.464438,-0.65255 -1.464438,-1.45878 0,-0.80572 0.65509,-1.45878 1.464438,-1.45878 0.808841,0 1.464438,0.65306 1.464438,1.45878"
       inkscape:connector-curvature="0" />
    <path
       style="fill:#ffffff;fill-opacity:0.25098041;stroke-width:0.00490061"
       d="m 29.288761,281.2966 c 0,0.80623 -0.654977,1.45878 -1.464692,1.45878 -0.808703,0 -1.464184,-0.65255 -1.464184,-1.45878 0,-0.80572 0.655481,-1.45878 1.464184,-1.45878 0.809715,0 1.464692,0.65306 1.464692,1.45878"
       id="path4485-6"
       inkscape:connector-curvature="0" />
    <path
       style="fill:#ffffff;fill-opacity:0.25098041;stroke-width:0.00490061"
       d="m 22.32395,286.8743 c 1.077607,0 2.10949,0.35751 2.830944,0.97927 0.408993,0.35232 0.459799,0.97719 0.114823,1.39376 -0.346501,0.41606 -0.957197,0.46839 -1.366698,0.11607 -0.74889,-0.64611 -2.440241,-0.6373 -3.172365,0.0145 -0.40442,0.35855 -1.017148,0.31347 -1.368221,-0.0969 -0.351582,-0.41139 -0.309922,-1.03781 0.09399,-1.3948 0.722978,-0.643 1.768577,-1.01191 2.867525,-1.01191"
       id="path4485-9"
       inkscape:connector-curvature="0" />
  </g>
</svg>
