<?xml version="1.0" encoding="UTF-8" standalone="no"?>
<svg
   xmlns:dc="http://purl.org/dc/elements/1.1/"
   xmlns:cc="http://creativecommons.org/ns#"
   xmlns:rdf="http://www.w3.org/1999/02/22-rdf-syntax-ns#"
   xmlns:svg="http://www.w3.org/2000/svg"
   xmlns="http://www.w3.org/2000/svg"
   xmlns:sodipodi="http://sodipodi.sourceforge.net/DTD/sodipodi-0.dtd"
   xmlns:inkscape="http://www.inkscape.org/namespaces/inkscape"
   height="48"
   viewBox="0 0 48 24"
   width="96"
   id="svg2"
   version="1.1"
   inkscape:version="0.91 r13725"
   sodipodi:docname="empty_speed_dial.svg"
   style="fill:#ffffff">
  <metadata
     id="metadata12">
    <rdf:RDF>
      <cc:Work
         rdf:about="">
        <dc:format>image/svg+xml</dc:format>
        <dc:type
           rdf:resource="http://purl.org/dc/dcmitype/StillImage" />
        <dc:title />
      </cc:Work>
    </rdf:RDF>
  </metadata>
  <defs
     id="defs10" />
  <sodipodi:namedview
     pagecolor="#ffffff"
     bordercolor="#666666"
     borderopacity="1"
     objecttolerance="10"
     gridtolerance="10"
     guidetolerance="10"
     inkscape:pageopacity="0"
     inkscape:pageshadow="2"
     inkscape:window-width="1920"
     inkscape:window-height="1025"
     id="namedview8"
     showgrid="false"
     inkscape:zoom="4.9166667"
     inkscape:cx="-10.779661"
     inkscape:cy="24"
     inkscape:window-x="0"
     inkscape:window-y="30"
     inkscape:window-maximized="1"
     inkscape:current-layer="svg2" />
  <path
     d="m 18.62,10.79 c 1.44,2.83 3.76,5.14 6.59,6.59 l 2.2,-2.2 c 0.27,-0.27 0.67,-0.36 1.02,-0.24 1.12,0.37 2.33,0.57 3.57,0.57 0.55,0 1,0.45 1,1 L 33,20 c 0,0.55 -0.45,1 -1,1 C 22.61,21 15,13.39 15,4 15,3.45 15.45,3 16,3 l 3.5,0 c 0.55,0 1,0.45 1,1 0,1.25 0.2,2.45 0.57,3.57 0.11,0.35 0.03,0.74 -0.25,1.02 l -2.2,2.2 z"
     id="path6"
     style="fill-opacity:1;"
     inkscape:connector-curvature="0" />
  <path
     inkscape:connector-curvature="0"
     d="M 41.24625,8.2499996 C 39.17625,8.2499996 37.5,9.93 37.5,12 c 0,2.07 1.67625,3.75 3.74625,3.75 C 43.32,15.75 45,14.07 45,12 45,9.93 43.32,8.2499996 41.24625,8.2499996 Z M 41.24995,15 c -1.6575,0 -3,-1.3425 -3,-3 0,-1.6575 1.3425,-3 3,-3 1.6575,0 3,1.3425 3,3 0,1.6575 -1.3425,3 -3,3 z"
     id="path4"
     style="fill-opacity:1" />
  <path
     inkscape:connector-curvature="0"
     d="m 41.4375,10.125 -0.5625,0 0,2.25 1.96875,1.18125 L 43.125,13.095 41.4375,12.09375 Z"
     id="path8-1"
     style="fill-opacity:1" />
  <path
     inkscape:connector-curvature="0"
     d="M 6.75,14.16375 9.0675,15.5625 8.4525,12.92625 10.5,11.1525 7.80375,10.92375 6.75,8.4375 5.69625,10.92375 3,11.1525 5.0475,12.92625 4.4325,15.5625 Z"
     id="path6-6"
     style="fill-opacity:1" />
</svg>
