<?xml version="1.0" encoding="UTF-8" standalone="no"?>
<svg
   xmlns:dc="http://purl.org/dc/elements/1.1/"
   xmlns:cc="http://creativecommons.org/ns#"
   xmlns:rdf="http://www.w3.org/1999/02/22-rdf-syntax-ns#"
   xmlns:svg="http://www.w3.org/2000/svg"
   xmlns="http://www.w3.org/2000/svg"
   xmlns:sodipodi="http://sodipodi.sourceforge.net/DTD/sodipodi-0.dtd"
   xmlns:inkscape="http://www.inkscape.org/namespaces/inkscape"
   height="126"
   viewBox="0 0 98 63"
   width="196"
   id="svg2"
   version="1.1"
   inkscape:version="0.91 r13725"
   sodipodi:docname="empty_call_log.svg"
   style="fill:#ffffff">
  <metadata
     id="metadata12">
    <rdf:RDF>
      <cc:Work
         rdf:about="">
        <dc:format>image/svg+xml</dc:format>
        <dc:type
           rdf:resource="http://purl.org/dc/dcmitype/StillImage" />
        <dc:title />
      </cc:Work>
    </rdf:RDF>
  </metadata>
  <defs
     id="defs10" />
  <sodipodi:namedview
     pagecolor="#ffffff"
     bordercolor="#666666"
     borderopacity="1"
     objecttolerance="10"
     gridtolerance="10"
     guidetolerance="10"
     inkscape:pageopacity="0"
     inkscape:pageshadow="2"
     inkscape:window-width="3832"
     inkscape:window-height="2089"
     id="namedview8"
     showgrid="false"
     inkscape:zoom="9.8333334"
     inkscape:cx="59.89044"
     inkscape:cy="49.422385"
     inkscape:window-x="1920"
     inkscape:window-y="44"
     inkscape:window-maximized="0"
     inkscape:current-layer="svg2" />
  <g
     id="g4141"
     transform="matrix(3,0,0,3,-201.5,-63)"
     style="fill:#ffffff;fill-opacity:0.50196081">
    <path
       style="fill:#ffffff;fill-opacity:0.50196081"
       id="path4"
       d="M 83.4925,23.999999 C 79.3525,23.999999 76,27.36 76,31.5 76,35.64 79.3525,39 83.4925,39 87.64,39 91,35.64 91,31.5 91,27.36 87.64,23.999999 83.4925,23.999999 Z M 83.4999,37.5 c -3.315,0 -6,-2.685 -6,-6 0,-3.315 2.685,-6 6,-6 3.315,0 6,2.685 6,6 0,3.315 -2.685,6 -6,6 z"
       inkscape:connector-curvature="0" />
    <path
       style="fill:#ffffff;fill-opacity:0.50196081"
       id="path8-1"
       d="m 83.875,27.75 -1.125,0 0,4.5 3.9375,2.3625 L 87.25,33.69 83.875,31.6875 Z"
       inkscape:connector-curvature="0" />
  </g>
</svg>
