<?xml version="1.0" encoding="UTF-8" standalone="no"?>
<!-- Created with Inkscape (http://www.inkscape.org/) -->

<svg
   xmlns:dc="http://purl.org/dc/elements/1.1/"
   xmlns:cc="http://creativecommons.org/ns#"
   xmlns:rdf="http://www.w3.org/1999/02/22-rdf-syntax-ns#"
   xmlns:svg="http://www.w3.org/2000/svg"
   xmlns="http://www.w3.org/2000/svg"
   xmlns:sodipodi="http://sodipodi.sourceforge.net/DTD/sodipodi-0.dtd"
   xmlns:inkscape="http://www.inkscape.org/namespaces/inkscape"
   width="13"
   height="14"
   viewBox="0 0 13 14"
   id="svg2"
   version="1.1"
   inkscape:version="0.91 r13725"
   sodipodi:docname="ic_notifications_off_small_light.svg">
  <defs
     id="defs4" />
  <sodipodi:namedview
     id="base"
     pagecolor="#ffffff"
     bordercolor="#666666"
     borderopacity="1.0"
     inkscape:pageopacity="0.0"
     inkscape:pageshadow="2"
     inkscape:zoom="63.356767"
     inkscape:cx="1.6524917"
     inkscape:cy="5.8447228"
     inkscape:document-units="px"
     inkscape:current-layer="layer1"
     showgrid="false"
     units="px"
     inkscape:window-width="3840"
     inkscape:window-height="2087"
     inkscape:window-x="1920"
     inkscape:window-y="44"
     inkscape:window-maximized="1" />
  <metadata
     id="metadata7">
    <rdf:RDF>
      <cc:Work
         rdf:about="">
        <dc:format>image/svg+xml</dc:format>
        <dc:type
           rdf:resource="http://purl.org/dc/dcmitype/StillImage" />
        <dc:title />
      </cc:Work>
    </rdf:RDF>
  </metadata>
  <g
     inkscape:label="Ebene 1"
     inkscape:groupmode="layer"
     id="layer1"
     transform="translate(0,-1038.3622)">
    <path
       inkscape:connector-curvature="0"
       d="m 11.884729,1049.9858 -8.7302941,-9.0104 -1.8451361,-1.9026 -0.9117988,0.9119 2.0102651,2.0103 0,0.011 c -0.373335,0.7108 -0.5743616,1.5508 -0.5743616,2.4555 l 0,3.5897 -1.4359035,1.4357 0,0.718 9.857479,0 1.435903,1.4359 0.911799,-0.9119 -0.717952,-0.7395 z m -5.7436145,2.3764 c 0.7969265,0 1.4359037,-0.639 1.4359037,-1.4359 l -2.8718074,0 c 0,0.7969 0.6389771,1.4359 1.4359037,1.4359 z m 4.3077115,-5.2555 0,-2.6419 c 0,-2.2114 -1.1774412,-4.0494 -3.2307837,-4.5376 l 0,-0.4882 c 0,-0.5958 -0.4810278,-1.0768 -1.0769278,-1.0768 -0.5959,0 -1.0769277,0.481 -1.0769277,1.0768 l 0,0.4882 c -0.107693,0.023 -0.2082061,0.058 -0.3015398,0.086 -0.071796,0.022 -0.1435904,0.05 -0.2153855,0.079 l -0.00718,0 c -0.00718,0 -0.00718,0 -0.014359,0.011 -0.1651289,0.065 -0.3302578,0.1435 -0.4882073,0.2225 0,0 -0.00718,0 -0.00718,0.011 l 6.4184898,6.7774 z"
       id="path6"
       style="fill:#ffffff;fill-opacity:1" />
  </g>
</svg>
